<svg width="192" height="62" viewBox="0 0 192 62" fill="none" xmlns="http://www.w3.org/2000/svg">
<g style="mix-blend-mode:darken">
<rect width="164" height="32" transform="translate(14 12)" fill="white"/>
<g filter="url(#filter0_ddd_109_73)">
<path fill-rule="evenodd" clip-rule="evenodd" d="M14 40L17.9977 43.9977H174.002L178 40V16L174 12L174.002 11.9977H17.9977L18 12L14 16V40Z" fill="white"/>
</g>
<path d="M43.1504 24.626C42.7448 24.626 42.3848 24.7057 42.0703 24.8652C41.7604 25.0202 41.4984 25.2458 41.2842 25.542C41.0745 25.8382 40.915 26.196 40.8057 26.6152C40.6963 27.0345 40.6416 27.5062 40.6416 28.0303C40.6416 28.7367 40.7282 29.3405 40.9014 29.8418C41.0791 30.3385 41.3525 30.7191 41.7217 30.9834C42.0908 31.2432 42.5671 31.373 43.1504 31.373C43.556 31.373 43.9616 31.3275 44.3672 31.2363C44.7773 31.1452 45.2217 31.0153 45.7002 30.8467V32.624C45.2581 32.8063 44.8229 32.9362 44.3945 33.0137C43.9661 33.0957 43.4854 33.1367 42.9521 33.1367C41.9222 33.1367 41.0745 32.9248 40.4092 32.501C39.7484 32.0726 39.2585 31.4756 38.9395 30.71C38.6204 29.9398 38.4609 29.042 38.4609 28.0166C38.4609 27.2601 38.5635 26.5674 38.7686 25.9385C38.9736 25.3096 39.2744 24.765 39.6709 24.3047C40.0674 23.8444 40.5573 23.4889 41.1406 23.2383C41.724 22.9876 42.3939 22.8623 43.1504 22.8623C43.6471 22.8623 44.1439 22.9261 44.6406 23.0537C45.1419 23.1768 45.6204 23.3477 46.0762 23.5664L45.3926 25.2891C45.0189 25.1113 44.6429 24.9564 44.2646 24.8242C43.8864 24.6921 43.515 24.626 43.1504 24.626ZM57.6543 27.9893C57.6543 28.7594 57.5586 29.4613 57.3672 30.0947C57.1758 30.7236 56.8841 31.266 56.4922 31.7217C56.1048 32.1774 55.6126 32.5283 55.0156 32.7744C54.4186 33.016 53.7122 33.1367 52.8965 33.1367C52.0807 33.1367 51.3743 33.016 50.7773 32.7744C50.1803 32.5283 49.6859 32.1774 49.2939 31.7217C48.9066 31.266 48.6172 30.7214 48.4258 30.0879C48.2344 29.4544 48.1387 28.7503 48.1387 27.9756C48.1387 26.9411 48.3073 26.041 48.6445 25.2754C48.9863 24.5052 49.5104 23.9082 50.2168 23.4844C50.9232 23.0605 51.821 22.8486 52.9102 22.8486C53.9948 22.8486 54.8857 23.0605 55.583 23.4844C56.2848 23.9082 56.8044 24.5052 57.1416 25.2754C57.4834 26.0456 57.6543 26.9502 57.6543 27.9893ZM50.3604 27.9893C50.3604 28.6865 50.4469 29.2881 50.6201 29.7939C50.7979 30.2952 51.0736 30.6826 51.4473 30.9561C51.821 31.2249 52.304 31.3594 52.8965 31.3594C53.498 31.3594 53.9857 31.2249 54.3594 30.9561C54.7331 30.6826 55.0042 30.2952 55.1729 29.7939C55.346 29.2881 55.4326 28.6865 55.4326 27.9893C55.4326 26.9411 55.2367 26.1162 54.8447 25.5146C54.4528 24.9131 53.8079 24.6123 52.9102 24.6123C52.3132 24.6123 51.8255 24.749 51.4473 25.0225C51.0736 25.2913 50.7979 25.6787 50.6201 26.1846C50.4469 26.6859 50.3604 27.2874 50.3604 27.9893ZM66.375 30.2246C66.375 30.8171 66.2314 31.332 65.9443 31.7695C65.6572 32.207 65.238 32.5443 64.6865 32.7812C64.1396 33.0182 63.4743 33.1367 62.6904 33.1367C62.3441 33.1367 62.0046 33.1139 61.6719 33.0684C61.3438 33.0228 61.027 32.9567 60.7217 32.8701C60.4209 32.779 60.1338 32.6673 59.8604 32.5352V30.5664C60.3343 30.776 60.8265 30.9652 61.3369 31.1338C61.8473 31.3024 62.3532 31.3867 62.8545 31.3867C63.2008 31.3867 63.4788 31.3411 63.6885 31.25C63.9027 31.1589 64.0576 31.0335 64.1533 30.874C64.249 30.7145 64.2969 30.5322 64.2969 30.3271C64.2969 30.0765 64.2126 29.8623 64.0439 29.6846C63.8753 29.5068 63.6429 29.3405 63.3467 29.1855C63.055 29.0306 62.7246 28.8643 62.3555 28.6865C62.123 28.5771 61.8701 28.445 61.5967 28.29C61.3232 28.1305 61.0635 27.9368 60.8174 27.709C60.5713 27.4811 60.3685 27.2054 60.209 26.8818C60.054 26.5537 59.9766 26.1618 59.9766 25.7061C59.9766 25.109 60.1133 24.5986 60.3867 24.1748C60.6602 23.751 61.0498 23.4274 61.5557 23.2041C62.0661 22.9762 62.6676 22.8623 63.3604 22.8623C63.8799 22.8623 64.3743 22.9238 64.8438 23.0469C65.3177 23.1654 65.8122 23.3385 66.3271 23.5664L65.6436 25.2139C65.1833 25.027 64.7708 24.8835 64.4062 24.7832C64.0417 24.6784 63.6702 24.626 63.292 24.626C63.0277 24.626 62.8021 24.6693 62.6152 24.7559C62.4284 24.8379 62.2871 24.9564 62.1914 25.1113C62.0957 25.2617 62.0479 25.4372 62.0479 25.6377C62.0479 25.8747 62.1162 26.0752 62.2529 26.2393C62.3942 26.3988 62.6038 26.5537 62.8818 26.7041C63.1644 26.8545 63.5153 27.0299 63.9346 27.2305C64.445 27.472 64.8802 27.7249 65.2402 27.9893C65.6048 28.249 65.8851 28.5566 66.0811 28.9121C66.277 29.263 66.375 29.7005 66.375 30.2246ZM72.792 33H70.6729V24.7695H67.959V23.0059H75.5059V24.7695H72.792V33ZM88.2988 33L87.5742 30.6211H83.9307L83.2061 33H80.9229L84.4502 22.9648H87.041L90.582 33H88.2988ZM87.0684 28.8438L86.3438 26.5195C86.2982 26.3646 86.2367 26.1663 86.1592 25.9248C86.0863 25.6787 86.0111 25.4303 85.9336 25.1797C85.8607 24.9245 85.8014 24.7035 85.7559 24.5166C85.7103 24.7035 85.6465 24.9359 85.5645 25.2139C85.487 25.4873 85.4118 25.7471 85.3389 25.9932C85.266 26.2393 85.2135 26.4147 85.1816 26.5195L84.4639 28.8438H87.0684ZM101.463 33H98.7695L94.4219 25.4395H94.3604C94.3786 25.7539 94.3945 26.0706 94.4082 26.3896C94.4219 26.7087 94.4355 27.0277 94.4492 27.3467C94.4629 27.6611 94.4766 27.9779 94.4902 28.2969V33H92.5967V23.0059H95.2695L99.6104 30.4912H99.6582C99.6491 30.1813 99.6377 29.8737 99.624 29.5684C99.6104 29.263 99.5967 28.9577 99.583 28.6523C99.5739 28.347 99.5648 28.0417 99.5557 27.7363V23.0059H101.463V33ZM110.854 33L110.129 30.6211H106.485L105.761 33H103.478L107.005 22.9648H109.596L113.137 33H110.854ZM109.623 28.8438L108.898 26.5195C108.853 26.3646 108.791 26.1663 108.714 25.9248C108.641 25.6787 108.566 25.4303 108.488 25.1797C108.415 24.9245 108.356 24.7035 108.311 24.5166C108.265 24.7035 108.201 24.9359 108.119 25.2139C108.042 25.4873 107.966 25.7471 107.894 25.9932C107.821 26.2393 107.768 26.4147 107.736 26.5195L107.019 28.8438H109.623ZM115.151 33V23.0059H117.271V31.25H121.324V33H115.151ZM126.928 27.1211L129.013 23.0059H131.296L127.98 29.1104V33H125.875V29.1787L122.56 23.0059H124.856L126.928 27.1211ZM139.203 30.2246C139.203 30.8171 139.06 31.332 138.772 31.7695C138.485 32.207 138.066 32.5443 137.515 32.7812C136.968 33.0182 136.302 33.1367 135.519 33.1367C135.172 33.1367 134.833 33.1139 134.5 33.0684C134.172 33.0228 133.855 32.9567 133.55 32.8701C133.249 32.779 132.962 32.6673 132.688 32.5352V30.5664C133.162 30.776 133.655 30.9652 134.165 31.1338C134.675 31.3024 135.181 31.3867 135.683 31.3867C136.029 31.3867 136.307 31.3411 136.517 31.25C136.731 31.1589 136.886 31.0335 136.981 30.874C137.077 30.7145 137.125 30.5322 137.125 30.3271C137.125 30.0765 137.041 29.8623 136.872 29.6846C136.703 29.5068 136.471 29.3405 136.175 29.1855C135.883 29.0306 135.553 28.8643 135.184 28.6865C134.951 28.5771 134.698 28.445 134.425 28.29C134.151 28.1305 133.892 27.9368 133.646 27.709C133.399 27.4811 133.197 27.2054 133.037 26.8818C132.882 26.5537 132.805 26.1618 132.805 25.7061C132.805 25.109 132.941 24.5986 133.215 24.1748C133.488 23.751 133.878 23.4274 134.384 23.2041C134.894 22.9762 135.496 22.8623 136.188 22.8623C136.708 22.8623 137.202 22.9238 137.672 23.0469C138.146 23.1654 138.64 23.3385 139.155 23.5664L138.472 25.2139C138.011 25.027 137.599 24.8835 137.234 24.7832C136.87 24.6784 136.498 24.626 136.12 24.626C135.856 24.626 135.63 24.6693 135.443 24.7559C135.257 24.8379 135.115 24.9564 135.02 25.1113C134.924 25.2617 134.876 25.4372 134.876 25.6377C134.876 25.8747 134.944 26.0752 135.081 26.2393C135.222 26.3988 135.432 26.5537 135.71 26.7041C135.993 26.8545 136.343 27.0299 136.763 27.2305C137.273 27.472 137.708 27.7249 138.068 27.9893C138.433 28.249 138.713 28.5566 138.909 28.9121C139.105 29.263 139.203 29.7005 139.203 30.2246ZM141.765 33V23.0059H143.884V33H141.765ZM153.049 30.2246C153.049 30.8171 152.905 31.332 152.618 31.7695C152.331 32.207 151.912 32.5443 151.36 32.7812C150.813 33.0182 150.148 33.1367 149.364 33.1367C149.018 33.1367 148.678 33.1139 148.346 33.0684C148.018 33.0228 147.701 32.9567 147.396 32.8701C147.095 32.779 146.808 32.6673 146.534 32.5352V30.5664C147.008 30.776 147.5 30.9652 148.011 31.1338C148.521 31.3024 149.027 31.3867 149.528 31.3867C149.875 31.3867 150.153 31.3411 150.362 31.25C150.576 31.1589 150.731 31.0335 150.827 30.874C150.923 30.7145 150.971 30.5322 150.971 30.3271C150.971 30.0765 150.886 29.8623 150.718 29.6846C150.549 29.5068 150.317 29.3405 150.021 29.1855C149.729 29.0306 149.398 28.8643 149.029 28.6865C148.797 28.5771 148.544 28.445 148.271 28.29C147.997 28.1305 147.737 27.9368 147.491 27.709C147.245 27.4811 147.042 27.2054 146.883 26.8818C146.728 26.5537 146.65 26.1618 146.65 25.7061C146.65 25.109 146.787 24.5986 147.061 24.1748C147.334 23.751 147.724 23.4274 148.229 23.2041C148.74 22.9762 149.341 22.8623 150.034 22.8623C150.554 22.8623 151.048 22.9238 151.518 23.0469C151.992 23.1654 152.486 23.3385 153.001 23.5664L152.317 25.2139C151.857 25.027 151.445 24.8835 151.08 24.7832C150.715 24.6784 150.344 24.626 149.966 24.626C149.701 24.626 149.476 24.6693 149.289 24.7559C149.102 24.8379 148.961 24.9564 148.865 25.1113C148.77 25.2617 148.722 25.4372 148.722 25.6377C148.722 25.8747 148.79 26.0752 148.927 26.2393C149.068 26.3988 149.278 26.5537 149.556 26.7041C149.838 26.8545 150.189 27.0299 150.608 27.2305C151.119 27.472 151.554 27.7249 151.914 27.9893C152.279 28.249 152.559 28.5566 152.755 28.9121C152.951 29.263 153.049 29.7005 153.049 30.2246Z" fill="#602BF8"/>
</g>
<defs>
<filter id="filter0_ddd_109_73" x="0" y="0.997711" width="192" height="61.0023" filterUnits="userSpaceOnUse" color-interpolation-filters="sRGB">
<feFlood flood-opacity="0" result="BackgroundImageFix"/>
<feColorMatrix in="SourceAlpha" type="matrix" values="0 0 0 0 0 0 0 0 0 0 0 0 0 0 0 0 0 0 127 0" result="hardAlpha"/>
<feOffset dy="4"/>
<feGaussianBlur stdDeviation="2.5"/>
<feColorMatrix type="matrix" values="0 0 0 0 0.188235 0 0 0 0 0.309804 0 0 0 0 0.996078 0 0 0 0.2 0"/>
<feBlend mode="normal" in2="BackgroundImageFix" result="effect1_dropShadow_109_73"/>
<feColorMatrix in="SourceAlpha" type="matrix" values="0 0 0 0 0 0 0 0 0 0 0 0 0 0 0 0 0 0 127 0" result="hardAlpha"/>
<feOffset dy="3"/>
<feGaussianBlur stdDeviation="7"/>
<feColorMatrix type="matrix" values="0 0 0 0 0.188235 0 0 0 0 0.309804 0 0 0 0 0.996078 0 0 0 0.12 0"/>
<feBlend mode="normal" in2="effect1_dropShadow_109_73" result="effect2_dropShadow_109_73"/>
<feColorMatrix in="SourceAlpha" type="matrix" values="0 0 0 0 0 0 0 0 0 0 0 0 0 0 0 0 0 0 127 0" result="hardAlpha"/>
<feOffset dy="8"/>
<feGaussianBlur stdDeviation="5"/>
<feColorMatrix type="matrix" values="0 0 0 0 0.188235 0 0 0 0 0.309804 0 0 0 0 0.996078 0 0 0 0.14 0"/>
<feBlend mode="normal" in2="effect2_dropShadow_109_73" result="effect3_dropShadow_109_73"/>
<feBlend mode="normal" in="SourceGraphic" in2="effect3_dropShadow_109_73" result="shape"/>
</filter>
</defs>
</svg>
