<?xml version="1.0" standalone="no"?>
<!DOCTYPE svg PUBLIC "-//W3C//DTD SVG 20010904//EN"
 "http://www.w3.org/TR/2001/REC-SVG-20010904/DTD/svg10.dtd">
<svg version="1.0" xmlns="http://www.w3.org/2000/svg"
 width="500.000000pt" height="500.000000pt" viewBox="0 0 500.000000 500.000000"
 preserveAspectRatio="xMidYMid meet">

<g transform="translate(0.000000,500.000000) scale(0.100000,-0.100000)"
fill="#000000" stroke="none">
<path d="M0 2500 l0 -2500 2500 0 2500 0 0 2500 0 2500 -2500 0 -2500 0 0
-2500z m2628 1029 c26 -6 93 -33 150 -60 129 -62 227 -155 287 -271 l39 -75
80 -7 c45 -4 119 -16 166 -27 244 -59 442 -234 466 -413 7 -45 7 -46 59 -60
170 -50 306 -153 376 -286 21 -39 24 -59 24 -145 0 -90 -3 -105 -28 -152 -88
-168 -301 -273 -553 -273 l-113 0 -20 -44 c-74 -167 -361 -273 -602 -222 -37
8 -97 27 -134 41 l-67 27 -77 -36 c-114 -53 -177 -66 -321 -66 -171 0 -282 32
-411 117 l-37 24 -84 -40 c-125 -60 -193 -75 -333 -75 -137 -1 -208 15 -323
69 -123 58 -242 168 -297 275 -21 42 -55 160 -55 194 0 32 -1 33 -83 55 -154
41 -300 131 -372 229 -56 76 -78 144 -79 243 0 78 3 92 34 155 90 184 315 315
570 331 l95 6 55 60 c142 156 351 237 575 223 101 -6 196 -26 246 -52 26 -13
29 -12 65 29 90 102 229 189 354 221 67 18 282 21 348 5z"/>
<path d="M1455 3131 c-179 -82 -179 -324 -1 -407 62 -29 117 -30 176 -3 80 36
125 96 136 183 13 91 -49 193 -138 231 -50 20 -124 19 -173 -4z m170 -30 c110
-50 148 -186 79 -284 -60 -83 -180 -109 -261 -55 -162 107 -91 358 102 358 22
0 58 -9 80 -19z"/>
<path d="M1534 3037 c-4 -11 -17 -30 -30 -42 -35 -35 -10 -85 43 -85 16 0 23
-6 23 -19 0 -16 -8 -20 -37 -23 -39 -3 -60 -28 -24 -28 12 0 21 -6 21 -15 0
-8 7 -15 15 -15 8 0 15 6 15 13 0 7 9 18 20 25 23 14 27 64 8 80 -7 5 -24 12
-38 14 -17 2 -25 9 -25 23 0 16 8 21 38 23 39 3 49 18 20 29 -10 4 -23 14 -30
22 -10 14 -12 14 -19 -2z"/>
<path d="M1320 2722 c0 -10 173 -182 184 -182 5 0 33 26 62 57 l52 57 91 -89
c50 -49 91 -92 91 -97 0 -4 -21 -8 -46 -8 -32 0 -44 -4 -41 -12 2 -9 26 -13
73 -13 l69 0 3 73 c2 59 0 72 -13 72 -11 0 -15 -11 -15 -47 l0 -48 -98 98
c-53 53 -104 97 -112 97 -8 0 -38 -23 -67 -52 l-53 -52 -78 77 c-70 69 -102
91 -102 69z"/>
<path d="M1000 2310 c-23 -23 -24 -33 -10 -61 8 -14 21 -19 49 -19 l39 0 4
-109 c4 -119 14 -144 57 -139 39 5 51 40 51 151 l0 97 34 0 c60 0 84 42 46 80
-18 18 -33 20 -135 20 -102 0 -117 -2 -135 -20z m245 -29 c3 -6 -17 -11 -47
-13 l-53 -3 -5 -125 -6 -125 -2 128 -2 127 -56 0 c-34 0 -53 4 -49 10 8 13
212 13 220 1z"/>
<path d="M1339 2323 c-6 -41 5 -321 13 -330 6 -7 23 -13 39 -13 34 0 49 23 49
74 l0 36 50 0 50 0 0 -36 c0 -50 15 -74 48 -74 16 0 33 5 40 12 14 14 17 295
3 317 -5 7 -26 14 -47 15 l-39 1 -3 -67 -3 -68 -49 0 -50 0 0 54 c0 45 -4 58
-22 70 -23 16 -77 22 -79 9z m61 -109 l0 -64 90 0 90 0 0 65 c0 37 4 65 10 65
6 0 10 -50 10 -130 0 -80 -4 -130 -10 -130 -5 0 -10 25 -10 55 l0 55 -90 0
-90 0 0 -49 c0 -28 -4 -53 -10 -56 -6 -4 -10 42 -10 130 0 88 4 134 10 130 6
-3 10 -35 10 -71z"/>
<path d="M1725 2319 c-11 -18 -5 -312 7 -326 13 -16 60 -17 76 -1 7 7 12 25
12 40 0 39 21 35 59 -12 20 -25 40 -40 54 -40 47 0 62 49 28 91 -19 23 -19 24
5 52 49 58 24 154 -49 188 -47 21 -181 27 -192 8z m199 -64 c43 -40 33 -105
-22 -134 l-23 -12 32 -40 c17 -22 29 -43 26 -46 -6 -5 -53 44 -70 73 -5 8 -25
14 -47 14 l-40 0 0 -45 c0 -25 -4 -45 -10 -45 -6 0 -10 50 -10 130 l0 130 69
0 c58 0 72 -3 95 -25z"/>
<path d="M1780 2195 l0 -78 51 6 c71 9 99 29 99 72 0 43 -28 63 -99 72 l-51 6
0 -78z m105 0 c0 -15 -8 -21 -32 -23 -30 -3 -33 -1 -33 23 0 24 3 26 33 23 24
-2 32 -8 32 -23z"/>
<path d="M2049 2323 c-6 -41 5 -321 13 -330 16 -20 66 -16 78 6 5 11 10 81 10
155 0 123 -2 138 -20 156 -19 19 -79 28 -81 13z m61 -174 c0 -79 -4 -129 -10
-129 -6 0 -10 52 -10 136 0 87 4 133 10 129 6 -4 10 -60 10 -136z"/>
<path d="M2227 2323 c-11 -11 -8 -303 3 -324 12 -22 62 -26 78 -6 6 7 12 35
14 62 l3 50 53 3 c44 3 55 7 63 26 19 41 -3 64 -64 68 -73 4 -65 22 13 26 71
3 90 13 90 47 0 44 -28 55 -142 55 -57 0 -108 -3 -111 -7z m208 -43 c4 -6 -23
-10 -74 -10 l-81 0 0 -50 0 -50 53 0 c28 0 59 -5 67 -10 11 -7 -5 -10 -52 -10
l-68 0 0 -60 c0 -33 -4 -60 -10 -60 -11 0 -14 242 -3 253 10 11 161 8 168 -3z"/>
<path d="M2522 2314 c-24 -17 -29 -53 -10 -72 7 -7 29 -12 50 -12 l38 0 0
-109 c0 -119 9 -141 54 -141 38 0 45 20 48 136 l3 109 35 3 c45 5 60 18 60 53
0 41 -24 49 -147 49 -82 0 -114 -4 -131 -16z m243 -34 c4 -6 -15 -10 -49 -10
l-56 0 0 -126 c0 -81 -4 -123 -10 -119 -6 4 -10 57 -10 126 l0 119 -51 0 c-31
0 -48 4 -44 10 3 6 52 10 110 10 58 0 107 -4 110 -10z"/>
<path d="M2854 2317 c-3 -8 -4 -81 -2 -162 4 -178 1 -175 130 -175 82 0 89 1
104 25 15 23 15 27 0 50 -14 22 -24 25 -70 25 l-54 0 -4 110 c-1 60 -8 114
-14 120 -6 6 -27 13 -47 17 -28 4 -38 2 -43 -10z m129 -275 c37 -2 67 -7 67
-13 0 -6 -29 -9 -72 -7 l-73 3 -1 135 0 135 5 -125 6 -125 68 -3z"/>
<path d="M3128 2319 c-36 -20 -22 -61 42 -124 l60 -59 0 -66 c0 -73 10 -90 52
-90 36 0 48 24 48 97 0 58 0 59 60 118 62 62 73 90 44 119 -26 26 -50 19 -107
-34 l-54 -49 -48 49 c-50 51 -66 57 -97 39z m211 -89 c33 36 63 62 67 57 4 -4
-20 -36 -54 -70 l-62 -63 0 -67 c0 -38 -4 -67 -10 -67 -6 0 -10 29 -10 68 l0
68 -60 59 c-33 33 -60 64 -60 69 0 6 29 -19 65 -54 l66 -65 58 65z"/>
<path d="M2874 1886 c-10 -26 1 -139 14 -144 9 -3 12 17 12 77 0 49 -4 81 -10
81 -6 0 -13 -6 -16 -14z"/>
<path d="M3320 1878 c0 -20 -5 -23 -37 -23 -30 0 -40 -5 -52 -27 -14 -25 -14
-31 -1 -55 14 -25 22 -28 65 -27 l50 1 0 73 c0 50 -4 75 -12 78 -8 2 -13 -5
-13 -20z m-15 -78 c0 -18 -6 -26 -23 -28 -24 -4 -38 18 -28 44 3 9 15 14 28
12 17 -2 23 -10 23 -28z"/>
<path d="M2754 1835 c-33 -50 11 -106 70 -91 41 10 32 33 -11 32 -34 -1 -38 2
-38 24 0 21 5 25 32 26 39 0 53 11 33 24 -29 18 -69 11 -86 -15z"/>
<path d="M2946 1844 c-36 -35 -7 -104 42 -104 27 0 62 33 62 58 0 52 -68 82
-104 46z m69 -44 c0 -18 -6 -26 -23 -28 -13 -2 -25 3 -28 12 -10 26 4 48 28
44 17 -2 23 -10 23 -28z"/>
<path d="M3073 1844 c-3 -8 0 -33 6 -55 13 -43 49 -61 83 -40 11 7 18 7 18 1
0 -5 5 -10 10 -10 6 0 10 27 10 60 0 47 -3 60 -15 60 -10 0 -15 -10 -15 -29 0
-42 -9 -61 -31 -61 -22 0 -39 28 -39 64 0 29 -17 35 -27 10z"/>
<path d="M2700 1755 c0 -9 5 -15 11 -13 6 2 11 8 11 13 0 5 -5 11 -11 13 -6 2
-11 -4 -11 -13z"/>
</g>
</svg>
